Patient4_TMGait_0pt2_01_left_24_EMG.mot
version=1
nRows=30
nColumns=33
inDegrees=no
endheader
time	1LAddLong	2LGlutMax	3LGlutMed	4LIliopsoas	5LSemiMemb	6LBicFemLong	7LRecFem	8LVastMed	9LVastLat	10LGasMed	11LTibAnt	12lTibPost	13LPeroneusLong	14LSol	15LExtDigLong	16LFlexDigLong	17RAddLong	18RGlutMax	19RGlutMed	20RIliopsoas	21RSemiMemb	22RBicFemLong	23RRecFem	24RVastMed	25RVastLat	26RGasMed	27RTibAnt	28RTibPost	29RPeroneusLong	30RSol	31RExtDigLong	32RFlexDigLong
57.29	0.011139	0.045929	0.046234	-0.029755	0.005341	-0.040588	-0.053406	0.011597	0.016479	0.006866	0.32867	0.014496	0.000153	0.009003	-0.45868	-0.040436	0.020752	-0.096283	-0.40848	0.14526	-0.014954	-0.34073	0.3537	-0.29907	0.24277	0.001984	0.030975	-0.019989	0.066071	-0.4863	-0.005035	-0.009613
57.291	0.018158	0.077667	0.072937	-0.070038	0.006714	-0.041351	-0.035858	0.014343	0.015411	-0.012512	0.47455	0.003967	0.021973	0.038605	-0.26947	-0.026703	0.057526	-0.020142	-0.58594	0.11871	0.028687	-0.28183	0.38116	-0.33875	0.43396	0.06134	0.055237	-0.077209	-0.36468	-0.55573	-0.00473	-0.007935
57.292	0.004578	0.054169	0.022278	-0.033417	-0.010834	-0.027466	-0.042114	0.014648	0.011902	-0.01358	0.20462	0.009613	0.040741	-0.0737	-0.18631	-0.032501	0.031433	0.052185	-0.69839	0.005646	-0.087585	-0.25314	0.30334	-0.24872	0.40894	-0.062866	0.047302	-0.12589	-0.11856	-0.26367	-0.002289	-0.013428
57.293	0.018921	0.032349	0.042114	-0.011444	0.003662	-0.037079	-0.035553	0.015564	0.012665	0.017548	-0.092773	0.011292	-0.038147	-0.052643	-0.22949	-0.034332	0.002899	0.098572	-0.70847	-0.11429	0.091705	-0.19821	0.088654	0.082245	0.24002	-0.041962	0.10941	0.007477	0.44784	-0.24399	-0.001984	-0.025635
57.294	0.012054	0.044708	0.037079	0.007172	0.000916	-0.047302	-0.03952	0.012207	0.029144	0.022888	-0.11795	0.012665	-0.031738	-0.049744	-0.23285	-0.031586	-0.071259	0.1564	-0.289	-0.095367	0.18127	-0.032043	-0.12528	0.19241	0.080872	-0.089569	0.056305	-0.15366	-0.41596	-0.25009	-0.005646	-0.014038
57.295	0.010376	0.015106	0.023651	0.027924	-0.000916	-0.081482	-0.015106	0.012054	0.029449	0.026398	-0.16327	0.014648	-0.012054	-0.087891	-0.07843	-0.028534	-0.094147	0.12299	0.89294	-0.077362	0.028687	0.096588	-0.22919	0.036469	-0.057068	0.015411	0.02655	-0.14008	-0.49164	0.022278	-0.010681	-0.014343
57.296	0.008392	0.037231	0.044403	0.018616	0.00473	-0.066223	-0.000153	0.011292	0.024414	0.018921	-0.24979	0.012665	0.041809	0.040588	0.034637	-0.020599	-0.042419	0.095825	1.7287	-0.11383	-0.026855	0.010986	-0.18799	0.05249	-0.15442	0.11276	-0.023804	-0.3772	-0.17197	-0.1355	-0.005798	-0.03067
57.297	0.013123	0.019379	0.047455	0.014343	0	-0.07843	0.001526	0.01236	0.024109	0.018311	-0.14603	0.012817	0.010071	-0.015259	0.06424	-0.029755	-0.023804	0.065002	0.72601	-0.021973	0.064392	0.022736	0.054016	0.037079	-0.31128	0.038757	-0.12817	0.099335	-0.42984	-0.28397	-0.002899	-0.017548
57.298	0.011749	0.023956	0.017242	-0.003052	0.009613	-0.074615	0.009918	0.012207	0.007477	0.019379	-0.083466	0.013428	0.00824	-0.068359	0.11551	-0.027466	-0.018005	0.058594	-0.40085	0.081787	0.069427	-0.028381	0.075378	-0.074615	-0.495	-0.001831	-0.075684	-0.5928	-0.29633	-0.33737	-0.009613	-0.01709
57.299	0.017395	0.037231	0.014954	-0.018311	0.019684	-0.077362	-0.001221	0.012665	-0.001373	0.037537	-0.065002	0.00473	-0.002289	-0.090942	0.1561	-0.020142	-0.003662	0.18829	-0.48813	-0.002899	-0.019226	0.020447	-0.063629	0.021667	-0.49408	0.001678	0.008392	0.61249	-0.18188	0.019836	-0.001221	-0.021057
57.3	0.00824	0.028534	0.01297	-0.009003	0.012512	-0.025482	0.026093	0.014648	-0.014343	0.014038	-0.075684	0.011292	-0.021515	-0.094757	0.18448	-0.018616	0.00824	0.23712	-0.32669	-0.028076	-0.037231	0.00885	-0.076447	0.025177	-0.19653	-0.011597	0.00885	0.45288	0.34897	0.86655	-0.003052	-0.007019
57.301	0.004272	0.046997	-0.005493	0.008545	0.007477	-0.016479	0.019226	0.014496	-0.022125	0.000153	-0.050049	0.0177	0.008392	-0.088806	0.23178	-0.010071	0.013885	0.36514	-0.013733	-0.039063	-0.041962	-0.036926	0.10101	0.037537	0.0177	-0.015259	0.019989	0.32623	0.1973	0.97641	-0.000763	-0.010681
57.302	0.009155	0.009613	-0.004578	0.032501	0.006714	0.012512	0.02243	0.016479	-0.031281	0.003052	0.023956	0.008392	-0.05661	-0.044556	0.19424	-0.007477	-0.006714	0.47302	0.32623	0.032654	-0.13199	0.041962	0.20691	0.11551	0.060577	0.069122	0.066833	0.16678	-0.10452	0.51636	-0.004578	-0.005493
57.303	0.010223	0.02121	-0.002899	0.009308	0.002594	0.006866	0.052795	0.019989	-0.028534	0.022278	0.11627	0.009155	-0.10208	-0.016937	0.10147	-0.00946	0.025177	0.56793	0.57785	0.014648	-0.095062	0.098419	0.18112	0.21347	0.079193	0.076294	0.069885	0.010529	0.8847	0.39215	-0.005035	-0.000153
57.304	0.004272	0.041962	0.019531	0.010681	-0.003662	0.011749	0.026703	0.016632	-0.02533	0.037689	0.16113	0.005493	-0.12711	-0.013885	0.029297	-0.001373	0.031738	0.56473	0.96756	-0.029602	0.1918	0.1326	0.014954	0.17792	0.087433	0.07309	0.094757	0.057983	-0.18921	0.28656	-0.004425	0.000458
57.305	0.00885	0.036621	0.023499	0.000763	-0.001068	0.014648	0.053101	0.020142	-0.020905	0.012512	0.15976	0.014191	-0.095673	-0.00061	-0.009155	0	0.012054	0.60028	1.3882	-0.015869	-0.086517	0.073242	-0.078278	0.18433	0.12192	0.056152	0.10101	-0.16357	-1.9994	-0.34012	-0.005798	0.001526
57.306	-0.005646	0.033417	0.019684	-0.005951	-0.008698	-0.010529	0.034943	0.008087	-0.022736	0.034485	0.057678	0.007935	-0.024109	0.016937	-0.085449	0.000763	0.002594	0.6131	0.51453	-0.03891	-0.2681	0.084381	-0.004272	0.15884	0.13245	0.03067	-0.082397	-0.23438	-0.09491	-0.93552	-0.006256	0.006561
57.307	0.010681	0.030365	-0.006714	-0.009766	0.007477	-0.008698	0.046997	0.019073	-0.017548	-0.022278	0.027771	0.004578	-0.017242	0.002899	0.27679	0.006104	0.018311	0.51331	-0.28748	-0.045471	-0.2243	0.016174	0.1004	-0.009766	0.057831	0.007477	-0.11673	0.12146	0.93277	-0.66147	-0.005493	0.010834
57.308	0.00885	0.047913	-0.068665	0	0.010529	-0.005951	0.026398	0.006714	-0.023499	-0.040588	0.10773	0.00885	-0.0354	0.04837	0.26154	-0.003052	0.009308	0.5278	-0.43121	0.041809	0.27832	-0.094299	0.18829	-0.14221	0.028687	0.011139	-0.047455	0.075531	0.65216	0.36728	-0.007324	0
57.309	0.006714	0.001373	-0.10361	0.00061	0.004578	-0.024261	0.033722	0.009918	-0.006104	0.008087	0.1033	0.000305	-0.040894	0.079041	-0.18036	0.002289	0.000305	0.34164	-0.44708	0.072632	0.15976	-0.21698	0.15503	-0.10864	0.041504	0.006866	0.036926	0.01297	0.68954	0.46921	-0.002899	-0.01236
57.31	0.011292	0.016479	-0.12497	-0.011444	-0.003662	-0.029297	0.029144	0.017395	-0.011597	0.001831	-0.012817	0.00824	-0.046692	0.037689	-0.39856	0.000153	0.011139	0.18524	0.14435	0.10178	-0.00946	-0.024414	-0.010223	-0.20035	0.030212	0.009918	0.046997	-0.034943	0.28717	0.37354	-0.002899	-0.012207
57.311	0.006866	0.014954	-0.03067	-0.02121	-0.00473	-0.033264	0.032806	0.016327	-0.00473	0.002899	-0.12039	0.000458	-0.021057	-0.017242	-0.022583	0.01297	0.038452	-0.012512	0.3566	0.12787	-0.034027	0.20187	0.037537	-0.35843	0.06424	-0.001831	0.047607	-0.057678	-0.65582	0.24735	-0.007019	-0.004578
57.312	0.009766	0.034485	0.032043	-0.009155	0.006561	-0.045624	0.023346	0.013428	-0.009155	-0.005798	-0.12344	0.00473	-0.009003	-0.032806	0.39169	0.020752	0.036469	-0.30807	-0.2681	0.089111	0.11246	0.20355	0.067902	-0.26199	0.073242	-0.002136	-0.022583	-0.061493	-0.78995	0.072021	-0.002441	-0.011597
57.313	0.012665	0.001526	-0.001221	0.018616	0.000305	-0.040894	-0.011139	0.010376	-0.002899	-0.012207	-0.21088	0.002441	-0.00351	-0.058441	0.10468	0.009308	0.01236	-0.37933	-1.067	0.046387	0.037079	0.21179	0.13901	-0.031738	0.10056	0.000305	-0.029755	-0.027618	-0.27649	0.090027	-0.00061	-0.012512
57.314	0.00885	0.029755	0.046387	0.006409	0.00824	-0.067749	-0.00946	0.011292	0.009155	-0.015564	-0.21622	-0.004883	-0.042877	-0.062866	0.14053	0.013123	-0.015564	-0.43854	-0.91354	-0.013885	0.0177	0.15991	0.11337	0.036469	0.15091	0.005493	0.018463	-0.038605	-0.38162	0.003204	-0.001526	-0.016022
57.315	0.013733	0.029297	0.098267	-0.010529	0.005341	-0.06546	-0.018158	0.011292	0.02121	-0.003052	-0.12253	0.003967	-0.051575	0.023041	-0.02182	0.007019	-0.007629	-0.42801	-0.74432	0.004883	-0.2211	0.1033	0.11475	0.000153	0.18219	0.029297	0.053406	-0.041809	-0.8876	0.10666	-0.00061	-0.016632
57.316	0.017395	0.032654	0.12299	-0.019684	0.010071	-0.07309	-0.006256	0.011139	0.028687	-0.020599	0.020599	0.00473	-0.079193	0.017395	-0.15106	0.016174	0.016174	-0.36392	-0.57449	0.033264	-0.13428	-0.041504	0.080261	-0.10849	0.1944	0.051727	0.05127	-0.071564	-1.3542	0.06424	-0.003052	-0.004578
57.317	0.019836	-0.009308	0.13001	-0.025787	0.008087	-0.06485	-0.017548	0.007019	0.020294	-0.029602	0.003357	-0.00061	-0.042725	0.002899	0.071411	0.012817	0.011749	-0.30456	-0.61768	0.029755	0.1294	-0.44846	0.030212	-0.036163	0.24139	0.038452	-0.050354	-0.078735	1.1484	0.042572	-0.001984	-0.009308
57.318	0.032959	-0.017395	0.088348	-0.007172	0.006409	-0.072632	-0.004883	0.004425	0.009003	-0.020752	0.018311	-0.001221	0.015411	-0.027771	0.24567	0.011749	0.010834	-0.32425	-0.64163	0.005188	0.051727	-0.1506	0.12787	-0.041351	0.22217	-0.013123	-0.009155	-0.099945	0.87814	-0.001221	-0.002747	0.003357
57.319	0.059357	0.009613	0.056305	0.004578	-0.003815	-0.070343	-0.003204	0.002136	0.012512	-0.01358	0.09964	-0.001068	0.020447	-0.10071	-0.2858	0.011139	-0.019531	-0.19989	-0.26108	-0.10819	-0.1207	0.050659	0.097046	-0.01709	0.090027	-0.079498	0.029602	0.043335	0.61783	-0.039978	-0.004425	0.001678
